<mxfile host="" modified="2020-06-04T16:50:31.339Z" agent="5.0 (Macintosh; Intel Mac OS X 10_15_4) AppleWebKit/537.36 (KHTML, like Gecko) Code/1.45.1 Chrome/78.0.3904.130 Electron/7.2.4 Safari/537.36" etag="vjolwi2bKfb4cbl71Rme" version="13.1.3">
    <diagram id="6hGFLwfOUW9BJ-s0fimq" name="Page-1">
        <mxGraphModel dx="644" dy="346" grid="1" gridSize="10" guides="1" tooltips="1" connect="1" arrows="1" fold="1" page="1" pageScale="1" pageWidth="827" pageHeight="1169" math="0" shadow="0">
            <root>
                <mxCell id="0"/>
                <mxCell id="1" parent="0"/>
                <mxCell id="2" value="Account" style="swimlane;" vertex="1" parent="1">
                    <mxGeometry x="60" y="106" width="290" height="250" as="geometry"/>
                </mxCell>
                <mxCell id="9" value="institution: Srting" style="text;strokeColor=none;fillColor=none;align=left;verticalAlign=top;spacingLeft=4;spacingRight=4;overflow=hidden;rotatable=0;points=[[0,0.5],[1,0.5]];portConstraint=eastwest;" vertex="1" parent="2">
                    <mxGeometry x="10" y="97" width="270" height="26" as="geometry"/>
                </mxCell>
                <mxCell id="20" value="transaction: {Obj.id ref}" style="text;strokeColor=none;fillColor=none;align=left;verticalAlign=top;spacingLeft=4;spacingRight=4;overflow=hidden;rotatable=0;points=[[0,0.5],[1,0.5]];portConstraint=eastwest;" vertex="1" parent="2">
                    <mxGeometry x="10" y="150" width="270" height="26" as="geometry"/>
                </mxCell>
                <mxCell id="23" value="user:{Obj.id ref}" style="text;strokeColor=none;fillColor=none;align=left;verticalAlign=top;spacingLeft=4;spacingRight=4;overflow=hidden;rotatable=0;points=[[0,0.5],[1,0.5]];portConstraint=eastwest;" vertex="1" parent="2">
                    <mxGeometry x="15" y="174" width="260" height="26" as="geometry"/>
                </mxCell>
                <mxCell id="19" value="description: String" style="text;strokeColor=none;fillColor=none;align=left;verticalAlign=top;spacingLeft=4;spacingRight=4;overflow=hidden;rotatable=0;points=[[0,0.5],[1,0.5]];portConstraint=eastwest;" vertex="1" parent="2">
                    <mxGeometry x="10" y="124" width="260" height="26" as="geometry"/>
                </mxCell>
                <mxCell id="3" value="User" style="swimlane;" vertex="1" parent="1">
                    <mxGeometry x="140" y="550" width="200" height="200" as="geometry"/>
                </mxCell>
                <mxCell id="6" value="username: String" style="text;strokeColor=none;fillColor=none;align=left;verticalAlign=top;spacingLeft=4;spacingRight=4;overflow=hidden;rotatable=0;points=[[0,0.5],[1,0.5]];portConstraint=eastwest;" vertex="1" parent="3">
                    <mxGeometry x="10" y="40" width="160" height="26" as="geometry"/>
                </mxCell>
                <mxCell id="32" value="email: String" style="text;strokeColor=none;fillColor=none;align=left;verticalAlign=top;spacingLeft=4;spacingRight=4;overflow=hidden;rotatable=0;points=[[0,0.5],[1,0.5]];portConstraint=eastwest;" vertex="1" parent="3">
                    <mxGeometry x="10" y="80" width="160" height="26" as="geometry"/>
                </mxCell>
                <mxCell id="4" value="Transaction" style="swimlane;" vertex="1" parent="1">
                    <mxGeometry x="470" y="50" width="280" height="230" as="geometry"/>
                </mxCell>
                <mxCell id="25" value="transactionType: String" style="text;strokeColor=none;fillColor=none;align=left;verticalAlign=top;spacingLeft=4;spacingRight=4;overflow=hidden;rotatable=0;points=[[0,0.5],[1,0.5]];portConstraint=eastwest;" vertex="1" parent="4">
                    <mxGeometry x="14" y="40" width="226" height="26" as="geometry"/>
                </mxCell>
                <mxCell id="28" value="transactionAmount: Number" style="text;strokeColor=none;fillColor=none;align=left;verticalAlign=top;spacingLeft=4;spacingRight=4;overflow=hidden;rotatable=0;points=[[0,0.5],[1,0.5]];portConstraint=eastwest;" vertex="1" parent="4">
                    <mxGeometry x="14" y="80" width="246" height="26" as="geometry"/>
                </mxCell>
                <mxCell id="29" value="transactionDescription: Strinf" style="text;strokeColor=none;fillColor=none;align=left;verticalAlign=top;spacingLeft=4;spacingRight=4;overflow=hidden;rotatable=0;points=[[0,0.5],[1,0.5]];portConstraint=eastwest;" vertex="1" parent="4">
                    <mxGeometry x="14" y="120" width="246" height="26" as="geometry"/>
                </mxCell>
                <mxCell id="30" value="date: Date" style="text;strokeColor=none;fillColor=none;align=left;verticalAlign=top;spacingLeft=4;spacingRight=4;overflow=hidden;rotatable=0;points=[[0,0.5],[1,0.5]];portConstraint=eastwest;" vertex="1" parent="4">
                    <mxGeometry x="14" y="160" width="246" height="26" as="geometry"/>
                </mxCell>
                <mxCell id="31" value="account:{Obj.id ref}" style="text;strokeColor=none;fillColor=none;align=left;verticalAlign=top;spacingLeft=4;spacingRight=4;overflow=hidden;rotatable=0;points=[[0,0.5],[1,0.5]];portConstraint=eastwest;" vertex="1" parent="4">
                    <mxGeometry x="14" y="198" width="256" height="26" as="geometry"/>
                </mxCell>
                <mxCell id="7" value="accountNumber: Number" style="text;strokeColor=none;fillColor=none;align=left;verticalAlign=top;spacingLeft=4;spacingRight=4;overflow=hidden;rotatable=0;points=[[0,0.5],[1,0.5]];portConstraint=eastwest;" vertex="1" parent="1">
                    <mxGeometry x="70" y="134" width="280" height="26" as="geometry"/>
                </mxCell>
                <mxCell id="8" value="accountType: String" style="text;strokeColor=none;fillColor=none;align=left;verticalAlign=top;spacingLeft=4;spacingRight=4;overflow=hidden;rotatable=0;points=[[0,0.5],[1,0.5]];portConstraint=eastwest;" vertex="1" parent="1">
                    <mxGeometry x="70" y="180" width="270" height="26" as="geometry"/>
                </mxCell>
                <mxCell id="10" value="balance: Number" style="text;strokeColor=none;fillColor=none;align=left;verticalAlign=top;spacingLeft=4;spacingRight=4;overflow=hidden;rotatable=0;points=[[0,0.5],[1,0.5]];portConstraint=eastwest;" vertex="1" parent="1">
                    <mxGeometry x="70" y="160" width="270" height="26" as="geometry"/>
                </mxCell>
                <mxCell id="33" value="passoword: String" style="text;strokeColor=none;fillColor=none;align=left;verticalAlign=top;spacingLeft=4;spacingRight=4;overflow=hidden;rotatable=0;points=[[0,0.5],[1,0.5]];portConstraint=eastwest;" vertex="1" parent="1">
                    <mxGeometry x="150" y="660" width="180" height="26" as="geometry"/>
                </mxCell>
                <mxCell id="36" value="" style="edgeStyle=entityRelationEdgeStyle;fontSize=12;html=1;endArrow=ERoneToMany;" edge="1" parent="1">
                    <mxGeometry width="100" height="100" relative="1" as="geometry">
                        <mxPoint x="340" y="632.5" as="sourcePoint"/>
                        <mxPoint x="60" y="120" as="targetPoint"/>
                    </mxGeometry>
                </mxCell>
                <mxCell id="39" value="" style="edgeStyle=entityRelationEdgeStyle;fontSize=12;html=1;endArrow=ERoneToMany;entryX=-0.018;entryY=0.054;entryDx=0;entryDy=0;entryPerimeter=0;" edge="1" parent="1" target="4">
                    <mxGeometry width="100" height="100" relative="1" as="geometry">
                        <mxPoint x="350" y="120" as="sourcePoint"/>
                        <mxPoint x="450" y="20" as="targetPoint"/>
                    </mxGeometry>
                </mxCell>
            </root>
        </mxGraphModel>
    </diagram>
</mxfile>